<svg width="110" height="110" viewBox="0 0 110 110" fill="none" xmlns="http://www.w3.org/2000/svg">
<g opacity="0.7">
<g clip-path="url(#clip0_43_251)">
<path d="M6.65889 64.4209C5.95305 61.2314 5.6687 58.2325 5.6687 54.9464C5.6687 42.9286 10.4024 31.5759 18.9993 22.9755C27.5969 14.3782 38.954 9.64404 50.9728 9.64404C62.9961 9.64404 74.3497 14.378 82.9437 22.9755C85.471 25.5008 87.5169 27.9872 89.3782 30.9839L88.5143 31.5224C86.689 28.5856 84.7171 26.137 82.2537 23.6736C73.8368 15.2608 62.7283 10.6294 50.9747 10.6294C39.2166 10.6294 28.1079 15.2607 19.696 23.6736C11.2875 32.0844 6.65354 43.1904 6.65354 54.9467C6.65354 58.1357 6.91875 60.9003 7.58875 63.9577L6.65889 64.4209ZM8.03027 65.8614C9.95979 73.6162 13.9408 80.4734 19.6941 86.231C19.8188 86.3512 19.9481 86.4944 19.9481 86.4944L19.2229 87.1243L19.0002 86.9212C13.1393 81.064 9.11287 74.1847 7.13115 66.2975L8.03027 65.8614ZM21.4754 87.9354C29.671 95.4174 39.9732 99.2724 50.9747 99.2724C62.7292 99.2724 73.8379 94.639 82.2535 86.231C90.6622 77.8142 95.296 66.7057 95.296 54.9475C95.296 48.9878 94.2757 43.6098 91.949 38.145L92.8343 37.3883C95.2577 43.0186 96.2791 48.7973 96.2791 54.9475C96.2791 66.9709 91.5452 78.3283 82.9439 86.9212C74.3507 95.5228 62.9973 100.256 50.9731 100.256C39.6962 100.256 29.021 96.3086 20.6406 88.6304L21.4754 87.9354Z" fill="white"/>
<path d="M51.0049 101.007C39.559 101.007 28.6988 96.992 20.1844 89.1903L19.8601 88.8889L21.7974 87.259L21.9961 87.429C30.3029 94.5159 40.1753 98.5766 51.0077 98.5766C62.5719 98.5766 73.4903 94.0238 81.7747 85.7466C90.0525 77.4609 94.6055 66.5419 94.6055 54.974C94.6055 49.0969 93.606 43.8321 91.3166 38.4551L91.1088 37.9674L93.1436 36.2272L93.5315 37.1297C95.9967 42.8573 97.0353 48.7439 97.0353 54.9746C97.0353 67.1873 92.221 78.7358 83.4884 87.46C74.7637 96.1932 63.2195 101.007 51.0049 101.007ZM18.9669 87.8968L18.5327 87.471L18.5234 87.4617C12.5794 81.5214 8.47811 74.518 6.46406 66.5025L6.39019 66.2752L8.65055 65.2707L8.77065 65.7158C10.8136 73.3037 14.5758 80.0766 20.2433 85.7483L20.2343 85.7393C20.3849 85.8844 20.5224 86.0376 20.5224 86.0376L20.7671 86.277L18.9669 87.8968ZM6.1184 65.1638L5.98532 64.605C5.21573 61.3737 4.97821 58.3016 4.97821 54.9743C4.97821 42.7671 9.79244 31.2233 18.5203 22.4917C27.2493 13.763 38.7967 8.94873 51.0058 8.94873C63.2194 8.94873 74.7623 13.7632 83.4884 22.4917C86.0456 25.0469 88.1341 27.5841 90.0261 30.6303L90.4067 31.2438L88.3156 32.5478L87.933 31.9326C86.1358 29.0411 84.2056 26.644 81.7753 24.2135C73.4896 15.9319 62.5715 11.3808 51.0083 11.3808C39.4395 11.3808 28.5211 15.9316 20.2413 24.2135C11.9639 32.4931 7.41055 43.4088 7.41055 54.9757C7.41055 58.1247 7.67012 60.8249 8.32885 63.8322L8.35676 63.9827L6.1184 65.1638Z" fill="white"/>
<path d="M51.5594 14.2545C51.5594 14.455 51.3948 14.6196 51.1943 14.6196C50.9938 14.6196 50.8295 14.455 50.8295 14.2545C50.8295 14.054 50.9938 13.8896 51.1943 13.8896C51.3948 13.8896 51.5594 14.054 51.5594 14.2545Z" fill="white"/>
<path d="M54.1462 19.706C54.1462 19.9526 53.941 20.1576 53.6971 20.1576C53.4486 20.1576 53.2482 19.9536 53.2482 19.706C53.2482 19.4611 53.4486 19.2588 53.6971 19.2588C53.9419 19.2588 54.1462 19.4611 54.1462 19.706Z" fill="white"/>
<path d="M60.7057 28.7593C60.7057 29.0041 60.5051 29.2048 60.2603 29.2048C60.0117 29.2048 59.8114 29.0041 59.8114 28.7593C59.8114 28.5108 60.0117 28.3057 60.2603 28.3057C60.5051 28.3057 60.7057 28.5108 60.7057 28.7593Z" fill="white"/>
<path d="M50.0812 22.8466C50.0812 23.047 49.9165 23.2114 49.716 23.2114C49.5156 23.2114 49.3512 23.047 49.3512 22.8466C49.3512 22.6479 49.5156 22.4814 49.716 22.4814C49.9165 22.4814 50.0812 22.6489 50.0812 22.8466Z" fill="white"/>
<path d="M54.0537 24.9713C54.0537 25.1718 53.8893 25.3364 53.6888 25.3364C53.4884 25.3364 53.3237 25.1718 53.3237 24.9713C53.3237 24.7708 53.4884 24.6064 53.6888 24.6064C53.8893 24.6064 54.0537 24.7708 54.0537 24.9713Z" fill="white"/>
<path d="M48.9727 19.1513C48.9727 19.3961 48.7684 19.6001 48.5235 19.6001C48.275 19.6001 48.0744 19.3961 48.0744 19.1513C48.0744 18.9046 48.275 18.7021 48.5235 18.7021C48.7684 18.7021 48.9727 18.9046 48.9727 19.1513Z" fill="white"/>
<path d="M42.9672 22.7544C42.9672 22.953 42.8028 23.1175 42.6023 23.1175C42.4018 23.1175 42.2375 22.953 42.2375 22.7544C42.2375 22.5539 42.4018 22.3867 42.6023 22.3867C42.8028 22.3867 42.9672 22.5539 42.9672 22.7544Z" fill="white"/>
<path d="M44.0757 23.4933C44.0757 23.6937 43.9113 23.8612 43.7108 23.8612C43.5104 23.8612 43.346 23.6947 43.346 23.4933C43.346 23.2928 43.5104 23.1284 43.7108 23.1284C43.9113 23.1284 44.0757 23.2928 44.0757 23.4933Z" fill="white"/>
<path d="M45.092 24.2323C45.092 24.4346 44.9277 24.5991 44.7272 24.5991C44.5267 24.5991 44.3621 24.4346 44.3621 24.2323C44.3621 24.0318 44.5267 23.8691 44.7272 23.8691C44.9277 23.8691 45.092 24.0318 45.092 24.2323Z" fill="white"/>
<path d="M43.5213 25.6185C43.5213 25.819 43.3569 25.9873 43.1565 25.9873C42.956 25.9873 42.7916 25.8181 42.7916 25.6185C42.7916 25.4217 42.956 25.2573 43.1565 25.2573C43.3569 25.2573 43.5213 25.4217 43.5213 25.6185Z" fill="white"/>
<path d="M35.0218 31.5311C35.0218 31.7316 34.8575 31.896 34.657 31.896C34.4565 31.896 34.2919 31.7316 34.2919 31.5311C34.2919 31.3343 34.4565 31.166 34.657 31.166C34.8575 31.166 35.0218 31.3343 35.0218 31.5311Z" fill="white"/>
<path d="M36.5923 33.4713C36.5923 33.6718 36.4279 33.8361 36.2274 33.8361C36.027 33.8361 35.8626 33.6718 35.8626 33.4713C35.8626 33.2708 36.027 33.1064 36.2274 33.1064C36.4279 33.1064 36.5923 33.2708 36.5923 33.4713Z" fill="white"/>
<path d="M35.3915 64.3289C35.3915 64.5294 35.2269 64.6974 35.0264 64.6974C34.8259 64.6974 34.6616 64.5294 34.6616 64.3289C34.6616 64.1322 34.8259 63.9678 35.0264 63.9678C35.2269 63.9678 35.3915 64.1322 35.3915 64.3289Z" fill="white"/>
<path d="M35.5763 72.8285C35.5763 73.0771 35.3757 73.2774 35.1271 73.2774C34.8823 73.2774 34.6783 73.0771 34.6783 72.8285C34.6783 72.5837 34.8823 72.3794 35.1271 72.3794C35.3757 72.3794 35.5763 72.5837 35.5763 72.8285Z" fill="white"/>
<path d="M30.772 77.1708C30.772 77.3713 30.6073 77.5356 30.4105 77.5356C30.2054 77.5356 30.0412 77.3713 30.0412 77.1708C30.0412 76.9703 30.2054 76.8057 30.4105 76.8057C30.6073 76.8057 30.772 76.9703 30.772 77.1708Z" fill="white"/>
<path d="M24.9516 78.9259C24.9516 79.1698 24.7472 79.375 24.5024 79.375C24.2539 79.375 24.0524 79.1698 24.0524 78.9259C24.0524 78.6774 24.253 78.4771 24.5024 78.4771C24.7472 78.4771 24.9516 78.6774 24.9516 78.9259Z" fill="white"/>
<path d="M23.7506 75.0458C23.7506 75.2943 23.5454 75.4947 23.3015 75.4947C23.0529 75.4947 22.8526 75.2943 22.8526 75.0458C22.8526 74.801 23.0529 74.5967 23.3015 74.5967C23.5463 74.5967 23.7506 74.801 23.7506 75.0458Z" fill="white"/>
<path d="M23.1037 77.5401C23.1037 77.7406 22.9393 77.9052 22.7388 77.9052C22.5384 77.9052 22.3737 77.7406 22.3737 77.5401C22.3737 77.3396 22.5384 77.1753 22.7388 77.1753C22.9393 77.1753 23.1037 77.3396 23.1037 77.5401Z" fill="white"/>
<path d="M18.7614 75.4154C18.7614 75.6159 18.597 75.7802 18.3966 75.7802C18.1961 75.7802 18.0314 75.6159 18.0314 75.4154C18.0314 75.2149 18.1961 75.0503 18.3966 75.0503C18.597 75.0503 18.7614 75.2149 18.7614 75.4154Z" fill="white"/>
<path d="M33.9132 82.4366C33.9132 82.6371 33.7486 82.8017 33.5481 82.8017C33.3476 82.8017 33.1833 82.6371 33.1833 82.4366C33.1833 82.2361 33.3476 82.0718 33.5481 82.0718C33.7486 82.0718 33.9132 82.2361 33.9132 82.4366Z" fill="white"/>
<path d="M38.4402 79.1108C38.4402 79.3593 38.2396 79.5596 37.9911 79.5596C37.7463 79.5596 37.5414 79.3593 37.5414 79.1108C37.5414 78.8622 37.7463 78.6616 37.9911 78.6616C38.2396 78.6616 38.4402 78.8622 38.4402 79.1108Z" fill="white"/>
<path d="M38.9022 83.3604C38.9022 83.5609 38.7378 83.7253 38.5373 83.7253C38.3368 83.7253 38.1725 83.5609 38.1725 83.3604C38.1725 83.16 38.3368 82.9956 38.5373 82.9956C38.7378 82.9956 38.9022 83.16 38.9022 83.3604Z" fill="white"/>
<path d="M57.6568 79.2955C57.6568 79.496 57.4887 79.6606 57.292 79.6606C57.0915 79.6606 56.9271 79.496 56.9271 79.2955C56.9271 79.095 57.0915 78.9307 57.292 78.9307C57.4887 78.9307 57.6568 79.095 57.6568 79.2955Z" fill="white"/>
<path d="M48.9726 82.3446C48.9726 82.5451 48.808 82.7094 48.6075 82.7094C48.407 82.7094 48.2427 82.5451 48.2427 82.3446C48.2427 82.1441 48.407 81.9795 48.6075 81.9795C48.808 81.9795 48.9726 82.1441 48.9726 82.3446Z" fill="white"/>
<path d="M72.3467 86.8717C72.3467 87.0722 72.1821 87.2365 71.9816 87.2365C71.7811 87.2365 71.6168 87.0722 71.6168 86.8717C71.6168 86.6712 71.7811 86.5068 71.9816 86.5068C72.1821 86.5068 72.3467 86.6712 72.3467 86.8717Z" fill="white"/>
<path d="M74.2867 69.5951C74.2867 69.8437 74.0861 70.044 73.8375 70.044C73.5927 70.044 73.3887 69.8437 73.3887 69.5951C73.3887 69.3503 73.5936 69.146 73.8375 69.146C74.0861 69.146 74.2867 69.3512 74.2867 69.5951Z" fill="white"/>
<path d="M70.6835 71.9967C70.6835 72.1972 70.5192 72.3618 70.3187 72.3618C70.1182 72.3618 69.9539 72.1972 69.9539 71.9967C69.9539 71.7962 70.1182 71.6318 70.3187 71.6318C70.5192 71.6318 70.6835 71.7962 70.6835 71.9967Z" fill="white"/>
<path d="M74.1941 72.7362C74.1941 72.9811 73.9892 73.1851 73.7453 73.1851C73.5005 73.1851 73.2961 72.9802 73.2961 72.7362C73.2961 72.4914 73.5005 72.2871 73.7453 72.2871C73.9892 72.2871 74.1941 72.4914 74.1941 72.7362Z" fill="white"/>
<path d="M70.6835 77.0782C70.6835 77.2787 70.5192 77.4431 70.3187 77.4431C70.1182 77.4431 69.9539 77.2787 69.9539 77.0782C69.9539 76.8777 70.1182 76.7134 70.3187 76.7134C70.5192 76.7134 70.6835 76.8777 70.6835 77.0782Z" fill="white"/>
<path d="M79.8299 67.1002C79.8299 67.3007 79.6652 67.4653 79.4648 67.4653C79.2643 67.4653 79.0999 67.3007 79.0999 67.1002C79.0999 66.8997 79.2643 66.7354 79.4648 66.7354C79.6652 66.7354 79.8299 66.8997 79.8299 67.1002Z" fill="white"/>
<path d="M80.7537 69.3178C80.7537 69.5663 80.5497 69.7666 80.3049 69.7666C80.0563 69.7666 79.8557 69.5663 79.8557 69.3178C79.8557 69.073 80.0563 68.8687 80.3049 68.8687C80.5497 68.8687 80.7537 69.0739 80.7537 69.3178Z" fill="white"/>
<path d="M87.0363 71.9969C87.0363 72.2418 86.8311 72.4461 86.5872 72.4461C86.3387 72.4461 86.1372 72.2409 86.1372 71.9969C86.1372 71.7521 86.3377 71.5518 86.5872 71.5518C86.832 71.5518 87.0363 71.7521 87.0363 71.9969Z" fill="white"/>
<path d="M80.6615 76.6163C80.6615 76.8168 80.4968 76.9814 80.2964 76.9814C80.0959 76.9814 79.9315 76.8168 79.9315 76.6163C79.9315 76.4158 80.0959 76.2515 80.2964 76.2515C80.4968 76.2515 80.6615 76.4158 80.6615 76.6163Z" fill="white"/>
<path d="M84.634 72.8285C84.634 73.029 84.4697 73.1933 84.2692 73.1933C84.0687 73.1933 83.9041 73.029 83.9041 72.8285C83.9041 72.628 84.0687 72.4634 84.2692 72.4634C84.4697 72.4634 84.634 72.628 84.634 72.8285Z" fill="white"/>
<path d="M83.8952 78.7413C83.8952 78.9418 83.7305 79.1061 83.5301 79.1061C83.3296 79.1061 83.1652 78.9418 83.1652 78.7413C83.1652 78.5408 83.3296 78.3765 83.5301 78.3765C83.7305 78.3765 83.8952 78.5408 83.8952 78.7413Z" fill="white"/>
<path d="M59.412 18.6894C59.4674 18.4603 59.656 18.2821 59.8888 18.2304L60.0174 17.2695L60.2057 18.2403C60.4302 18.3049 60.6031 18.4869 60.6548 18.7179L61.6298 18.8566L60.6467 19.0294C60.582 19.2521 60.4065 19.4239 60.182 19.4803L60.0176 20.4693L59.8493 19.4721C59.6331 19.4074 59.4604 19.2321 59.4078 19.0094L58.4686 18.8569L59.412 18.6894Z" fill="white"/>
<path d="M34.2826 87.6101C34.3473 87.381 34.5277 87.2054 34.7605 87.1528L34.8888 86.1899L35.0771 87.1607C35.3016 87.2253 35.4744 87.4092 35.5271 87.6383L36.4978 87.7787L35.5192 87.9515C35.4545 88.1723 35.2779 88.345 35.0534 88.4004L34.8891 89.3875L34.7199 88.3925C34.4991 88.3278 34.331 88.1511 34.2747 87.9312L33.3358 87.779L34.2826 87.6101Z" fill="white"/>
<path d="M80.5691 78.7412C80.6338 78.5121 80.8139 78.3357 81.0467 78.2839L81.1705 77.3208L81.3628 78.2921C81.5873 78.3568 81.7601 78.5406 81.8128 78.7734L82.7872 78.9101L81.8043 79.083C81.7396 79.3038 81.5642 79.4764 81.3388 79.5318L81.1705 80.5186L81.0061 79.5236C80.7853 79.459 80.6173 79.2825 80.5609 79.0627L79.6263 78.9101L80.5691 78.7412Z" fill="white"/>
<path d="M84.2644 68.7632C84.3291 68.5341 84.5129 68.3576 84.7421 68.3059L84.8706 67.3428L85.059 68.3138C85.2835 68.3785 85.46 68.5623 85.5126 68.7951L86.4836 68.9318L85.5005 69.1046C85.4358 69.3255 85.2603 69.4974 85.0395 69.5538L84.8706 70.5448L84.706 69.5459C84.4852 69.4812 84.3171 69.3094 84.2608 69.0849L83.3219 68.9324L84.2644 68.7632Z" fill="white"/>
<path d="M38.7172 32.1774C38.7819 31.9483 38.9657 31.7682 39.1985 31.7164L39.3271 30.7578L39.5154 31.7285C39.7399 31.7932 39.9128 31.977 39.9646 32.2062L40.9353 32.3421L39.9567 32.5186C39.892 32.7394 39.7154 32.912 39.4909 32.9674L39.3265 33.9545L39.1585 32.9595C38.9377 32.8949 38.7694 32.7183 38.713 32.4937L37.7744 32.3412L38.7172 32.1774Z" fill="white"/>
<path d="M46.0159 67.1004C43.5729 63.9433 40.6724 60.6578 37.9402 56.5942L37.0016 56.8223C37.1014 56.9794 37.2023 57.1392 37.303 57.2963C39.8424 61.2236 42.3696 64.5213 44.9812 67.6705C44.9812 67.6705 45.0088 67.7075 45.0458 67.7666L46.0159 67.1004Z" fill="white"/>
<path d="M46.1083 69.4102C47.7534 71.7608 50.7664 75.5519 52.2708 74.2041C53.8915 72.756 50.1804 71.2357 47.3483 68.5835L46.1083 69.4102Z" fill="white"/>
<path d="M51.8365 63.2204H43.2552L45.173 61.2989L44.491 59.5337H38.7342L38.1447 61.5513L39.5169 63.2204H34.0728L35.9909 61.2989L39.6813 48.5051L38.0164 46.832H46.0284L51.7728 61.2981L52.9603 62.4893L51.8365 63.2204ZM43.4715 57.0021L41.153 51.1289L39.4518 57.0021H43.4715Z" fill="white"/>
<path d="M75.8572 47.4218L75.1994 46.8599H76.6717L75.8572 47.4218ZM80.2062 46.8599H83.5154L89.2606 61.3259L91.1742 63.2476H80.7436L82.6574 61.3259L81.9791 59.5609H76.2226L75.6286 61.5785L77.0044 63.2476H71.5604L73.4784 61.3259L77.0008 49.1106L80.2062 46.8599ZM80.9601 57.0299L78.6414 51.1567L76.9407 57.0299H80.9601Z" fill="white"/>
<path d="M27.0764 57.1226V48.5898L25.4118 46.917H30.9518L29.2911 48.5898V61.3836L31.2047 63.3051H23.9229L17.6527 52.6943V61.3839L19.2654 63.3053H13.4723L15.3864 61.3839V48.5901L13.7252 46.9173H20.9785L27.0764 57.1226Z" fill="white"/>
<path d="M57.1949 59.7094C56.902 59.4849 56.6331 59.2355 56.3882 58.9473L56.4714 60.1864L57.1949 59.7094Z" fill="white"/>
<path d="M63.385 58.139C64.5403 58.588 65.3707 59.0454 65.3507 59.8479C65.323 60.7431 63.8421 61.3849 62.6866 61.3484C62.0852 61.3299 60.7132 61.2403 59.3089 60.7673L56.649 62.4804L56.7618 64.2972L58.6714 62.8974C60.9943 63.7159 63.8105 64.0607 66.4142 63.2143C69.0019 62.368 71.7256 60.2053 70.2131 56.418C69.924 55.6881 69.3992 55.0823 68.8215 54.6006L63.385 58.139Z" fill="white"/>
<path d="M66.8955 53.4271C66.8308 53.3994 66.7756 53.3717 66.7192 53.3532C65.7404 52.956 62.7594 51.7804 61.9253 51.3472C60.9542 50.8418 61.0625 49.2331 63.4016 48.9041C65.5237 48.6113 68.4601 50.3082 69.0901 51.0582L68.9173 45.9556L67.2002 47.1428C64.7809 46.2966 61.9651 46.328 59.9909 47.2629C58.1497 48.1332 56.1677 49.971 56.4085 52.5824C56.6487 55.1901 58.6751 56.2011 60.5004 57.0276C60.6685 57.1107 60.8534 57.1836 61.0262 57.252L63.9706 55.3463L66.8955 53.4271Z" fill="white"/>
<path d="M13.2181 93.4311L13.1259 94.9717C48.3699 61.3934 99.5361 44.6286 109.089 14.2266C93.2223 45.4943 45.3468 60.6427 13.2181 93.4311Z" fill="url(#paint0_linear_43_251)"/>
<path d="M34.9296 53.3349C34.5563 52.6891 34.1794 52.027 33.7981 51.3492C25.233 35.9398 26.4687 20.2155 41.9703 27.0661C55.1254 32.8834 67.6892 49.1948 72.7446 60.7774C75.0875 66.1451 81.3659 87.2114 61.1462 78.6776L61.1093 78.5538C80.2049 86.4168 76.9041 66.4896 66.6862 51.2169C60.901 42.5718 53.3582 35.3753 48.6002 31.8969C32.7613 20.3318 23.1058 27.4038 34.2219 50.0954C34.7272 51.1223 35.2488 52.1012 35.7864 53.04L34.9296 53.3349Z" fill="white"/>
<path opacity="0.7" d="M75.857 44.7427C89.5498 38.4764 101.608 29.2888 109.026 14.1807C101.853 24.4745 89.3847 32.3497 74.9436 38.7652C72.5688 39.8161 70.1373 40.831 67.6699 41.8099C44.6746 50.9408 16.7604 57.72 0.760681 68.2281L1.91271 68.633C19.4562 57.9539 50.4707 56.3604 75.857 44.7427Z" fill="white"/>
</g>
</g>
<defs>
<linearGradient id="paint0_linear_43_251" x1="13.1259" y1="54.5359" x2="109.024" y2="54.5359" gradientUnits="userSpaceOnUse">
<stop stop-color="white"/>
<stop offset="1" stop-color="white" stop-opacity="0"/>
</linearGradient>
<clipPath id="clip0_43_251">
<rect width="110" height="110" fill="white"/>
</clipPath>
</defs>
</svg>
